<svg xmlns="http://www.w3.org/2000/svg" viewBox="0 0 160 40" fill="white">
  <path d="M23 25c-1.5 1-2.5 1.5-4 1.5-2 0-3.5-1.5-3.5-3.5 0-2.5 2-4 6-4h1.5v-.5c0-1.5-1-2.5-3-2.5-1.5 0-2.5.5-3 1.5l-3-2c1-1.8 3.2-3 6.2-3 4 0 6.5 2 6.5 5.5v6c0 1.2.5 1.5 1.5 1.5v3.5c-2.5 0-4-.5-4.8-2L23 25zm0-3.5h-1c-2 0-3 .8-3 2s.8 1.8 2 1.8c1.2 0 2-.8 2-2v-1.8z"/>
  <path d="M33 13h4l3 11 3.5-11h3.5l3.5 11 3-11h4l-5 16.5h-4L45 18.5l-3.5 11h-4L33 13z"/>
  <path d="M62 29.5c-3 0-5.5-1-7-3l2.5-2.5c1 1.5 2.5 2.2 4.5 2.2 2 0 3-.8 3-1.8 0-1.2-1.2-1.5-3.5-2l-1.2-.3C57 21 55.5 19.5 55.5 17c0-3 2.8-5 6.5-5 2.5 0 4.5 1 6 2.5l-2.5 2.5c-1-1-2.2-1.5-3.5-1.5-1.5 0-2.5.5-2.5 1.5 0 1 1 1.5 3 2l1.5.3c3.5 1 5 2.5 5 5 0 3.2-3 5.2-7 5.2z"/>
  <path d="M12 32c8 3 18 3 28-1.5l1 2C30 36.5 18.5 37 9 33l3-1z"/>
  <path d="M42.5 30l1.5-1.5c1.5 1.5 3 2 5 2V33c-2.5 0-5-1-6.5-3z"/>
  <path d="M80 13h5.5l6 13 6-13h5.5l-9 20h-5L80 13z"/>
  <path d="M108 33V13h5v20h-5z"/>
  <path d="M107 7.5c0-1.8 1.5-3 3.2-3s3.2 1.2 3.2 3-1.5 3-3.2 3-3.2-1.2-3.2-3z"/>
  <path d="M117 33V13h5v2c1.5-1.5 3.2-2.5 5.5-2.5 4 0 7 3 7 7.5V33h-5V21c0-2.5-1.5-4-3.5-4s-4 1.5-4 4.5V33h-5z"/>
  <path d="M139 33V13h5v2c1.2-1.5 3-2.5 5.5-2.5 2 0 3.5.8 4.5 2.5 1.5-1.5 3.5-2.5 6-2.5 3.5 0 6 2.5 6 7V33h-5V21c0-2.5-1.2-4-3.5-4-2 0-3.5 1.5-3.5 4v12h-5V21c0-2.5-1.2-4-3.5-4-2 0-3.5 1.5-3.5 4v12h-5z"/>
</svg>