<svg xmlns="http://www.w3.org/2000/svg" viewBox="0 0 180 40" fill="white">
  <path d="M20 4C11.2 4 4 11.2 4 20s7.2 16 16 16c4 0 7.5-1.5 10.2-3.8-1.5-.5-3-1.5-4-3-1.8 1.2-3.8 1.8-6.2 1.8-6 0-10.8-4.8-10.8-10.8S10 9.2 16 9.2c2.3 0 4.5.8 6.2 2 1-1.5 2.5-2.5 4.2-3C24 5.8 20.5 4 16.5 4H20zm4 10c-2.5 0-4.5 2-4.5 4.5s2 4.5 4.5 4.5 4.5-2 4.5-4.5-2-4.5-4.5-4.5z"/>
  <path d="M48 32.5c-6.5 0-11.5-5-11.5-11.5S41.5 9.5 48 9.5c4 0 7.5 2 9.5 5l-3.5 2c-1.2-2-3.5-3.2-6-3.2-4.5 0-7.8 3.5-7.8 7.8s3.3 7.8 7.8 7.8c2.5 0 4.8-1.2 6-3.2l3.5 2C55.5 30.5 52 32.5 48 32.5z"/>
  <path d="M70 32.5c-6.5 0-11-5-11-11.5S63.5 9.5 70 9.5s11 5 11 11.5-4.5 11.5-11 11.5zm0-4c4 0 7-3.2 7-7.5s-3-7.5-7-7.5-7 3.2-7 7.5 3 7.5 7 7.5z"/>
  <path d="M85 32V6h4v10.5c1.5-2 4-3.5 7-3.5 5 0 8 3 8 8V32h-4V21.5c0-3.5-2-5.5-5-5.5s-5.5 2-6 4.5V32h-4z"/>
  <path d="M115 32.5c-6 0-10.5-5-10.5-11.5s4.5-11.5 10-11.5 9.5 4.5 10 10v2h-16c.5 3.8 3.2 6.5 7 6.5 2.5 0 4.5-1 6-3l2.5 2.5c-2 3-5.5 5-9 5zm5.5-14c-.5-3.5-2.8-5.5-6-5.5s-5.5 2-6 5.5h12z"/>
  <path d="M130 32V10h4v3c1.5-2 3.5-3.5 6.5-3.5 1 0 1.5.2 2 .3v4c-.5-.2-1.5-.3-2.5-.3-2.5 0-5 1.5-6 4V32h-4z"/>
  <path d="M152 32.5c-6 0-10.5-5-10.5-11.5s4.5-11.5 10-11.5 9.5 4.5 10 10v2h-16c.5 3.8 3.2 6.5 7 6.5 2.5 0 4.5-1 6-3l2.5 2.5c-2 3-5.5 5-9 5zm5.5-14c-.5-3.5-2.8-5.5-6-5.5s-5.5 2-6 5.5h12z"/>
</svg>