<svg xmlns="http://www.w3.org/2000/svg" viewBox="0 0 200 40" fill="white">
  <path d="M20 2L4 11v6l16 9 16-9v-3l-16-9-11.5 6.5L20 17l8.5-5L20 7.5 9 13.5l11 6 16-9V17l-16 9-16-9v6l16 9 16-9v-6l-16 9L4 26v-6"/>
  <path d="M48 32V8h7c6 0 10 4 10 12s-4 12-10 12h-7zm4-4h3c4 0 6.5-3 6.5-8s-2.5-8-6.5-8h-3v16z"/>
  <path d="M77 32v-1.5c-1.2 1.2-3 2-5.2 2-3 0-5.5-2-5.5-5 0-3.2 2.5-5 6-5h4.5v-1c0-2-1.2-3-3.5-3-2 0-3.2.8-3.8 2l-3-2c1.2-2 3.5-3.5 7-3.5 4.5 0 7 2 7 6.5V32h-3.5zm0-6.5h-4c-1.8 0-3 .8-3 2.2 0 1.2 1 2 2.8 2 2 0 3.5-1 4.2-2.5v-1.7z"/>
  <path d="M87 18h-3.5v-3.5H87V10h3.5v4.5h5V18h-5v7.5c0 2 .8 3 2.5 3 1 0 2-.3 2.5-.5v3.5c-1 .3-2 .5-3.5.5-3.5 0-5.5-2-5.5-5.5V18z"/>
  <path d="M109 32v-1.5c-1.2 1.2-3 2-5.2 2-3 0-5.5-2-5.5-5 0-3.2 2.5-5 6-5h4.5v-1c0-2-1.2-3-3.5-3-2 0-3.2.8-3.8 2l-3-2c1.2-2 3.5-3.5 7-3.5 4.5 0 7 2 7 6.5V32h-3.5zm0-6.5h-4c-1.8 0-3 .8-3 2.2 0 1.2 1 2 2.8 2 2 0 3.5-1 4.2-2.5v-1.7z"/>
  <path d="M119 32V8h4v9.5c1.2-1.5 3-2.5 5.5-2.5 4 0 6.5 2.5 6.5 7V32h-4V22.5c0-2.5-1.5-4-3.8-4s-4 1.5-4.2 3.5V32h-4z"/>
  <path d="M139 32V15h4v2c1-1.5 2.5-2.5 4.5-2.5v4c-.5-.2-1-.2-1.5-.2-1.5 0-3 1-3 3V32h-4z"/>
  <path d="M150 32V15h4v17h-4zm2-20c-1.5 0-2.5-1-2.5-2.5s1-2.5 2.5-2.5 2.5 1 2.5 2.5-1 2.5-2.5 2.5z"/>
  <path d="M166 32.5c-3 0-5.5-1-7-3l2.5-2.5c1 1.3 2.5 2 4.5 2s3-.8 3-2c0-1-1-1.5-3-2l-1.5-.5c-3-.8-5-2.5-5-5 0-3 2.5-5 6-5 2.5 0 4.5 1 6 2.5l-2.5 2.5c-.8-1-2-1.5-3.5-1.5-1.5 0-2.5.5-2.5 1.5 0 1 1 1.5 2.5 2l1.5.5c3 1 5 2.2 5 5 0 3.5-3 5.5-6.5 5.5z"/>
</svg>