<svg xmlns="http://www.w3.org/2000/svg" viewBox="0 0 200 40" fill="white">
  <path d="M25 11c3 0 5.5 1 7.5 3l-3 3c-1.2-1.2-2.8-2-4.5-2-4 0-7 3.2-7 7.5S21 30 25 30c3 0 5.5-1.8 6-4.5H25V22h10.5c.2.8.3 1.5.3 2.5 0 7-4.8 11.5-11 11.5C18 36 12.5 30.5 12.5 23.5S18 11 25 11z"/>
  <path d="M48 23.5c0 5.5-4 9.5-9 9.5s-9-4-9-9.5 4-9.5 9-9.5 9 4 9 9.5zm-4 0c0-3.5-2.2-6-5-6s-5 2.5-5 6 2.2 6 5 6 5-2.5 5-6z"/>
  <path d="M62 23.5c0 5.5-4 9.5-9 9.5s-9-4-9-9.5 4-9.5 9-9.5 9 4 9 9.5zm-4 0c0-3.5-2.2-6-5-6s-5 2.5-5 6 2.2 6 5 6 5-2.5 5-6z"/>
  <path d="M76 14v17.5c0 7-4 10-9 10-4.5 0-7.2-3-8.2-5.5l3.5-1.5c.6 1.5 2.2 3.2 4.7 3.2 3 0 5-2 5-5.5V31h-.2c-1 1.2-2.8 2.5-5.3 2.5-5 0-8.5-4.2-8.5-9.5s3.5-9.5 8.5-9.5c2.5 0 4.3 1.2 5.3 2.3h.2V14H76zm-3.8 9.5c0-3.2-2-6-5-6-3 0-5.2 2.5-5.2 6 0 3.2 2.2 5.8 5.2 5.8 2.8 0 5-2.5 5-5.8z"/>
  <path d="M82 6v26h-4V6h4z"/>
  <path d="M96 27l3 2c-1 1.5-3.5 4-7.5 4-5.2 0-9-4-9-9.5 0-5.5 3.8-9.5 8.5-9.5 4.8 0 7 3.8 7.8 5.8l.5 1.2-12 5c.8 1.8 2.2 3 4.5 3 2 0 3.5-1 4.2-2.5v.5zm-9.5-3.5l8-3.3c-.5-1.2-1.8-2-3.5-2-2.2 0-5 2-4.5 5.3z"/>
</svg>