<svg xmlns="http://www.w3.org/2000/svg" viewBox="0 0 160 40" fill="white">
  <path d="M10 29c-2.5 0-4.5-1-6-3-1.5-2-2.5-5-2.5-8.5 0-4 1.5-7.5 4-10C7.5 5 10.5 4 13 4c2 0 3.8 1 5.5 3 1 1.2 2 3 3.2 5.5 1-2.5 2-4.2 3-5.5C26.5 5 28.2 4 30.2 4c2.5 0 5 1 7 3.5 2.5 2.8 3.8 6.2 3.8 10 0 3.5-1 6.5-2.5 8.5-1.5 2-3.5 3-6 3-2.2 0-4-1-5.5-2.5-1.2-1.3-2.5-3.5-4-6.5l-1.5-3-1.5 3c-1.5 3-2.8 5.2-4 6.5C14.5 28 12.5 29 10 29zm3-21c-1.5 0-3 .8-4.2 2.5C7.5 12.5 6.5 15 6.5 18c0 2.8.5 5 1.5 6.2.8 1 1.8 1.5 3 1.5 1.5 0 2.8-.8 4-2.5 1-1.3 2.2-3.5 3.5-6.5l.5-1C17 11.5 15.5 8 13 8zm17.2 0c-2.5 0-4.8 3.5-7 8l.5 1c1.2 3 2.5 5 3.5 6.5 1.2 1.5 2.5 2.3 4 2.3 1.2 0 2.2-.5 3-1.5 1-1.2 1.5-3.2 1.5-6 0-3-1-5.5-2.3-7.5C32 9 30.8 8 30.2 8z"/>
  <path d="M56 32V10h5.2l.3 2.5c1.5-2 3.8-3 6.2-3 2.5 0 4.5 1 5.8 3 1.5-2 4-3 6.8-3 4.5 0 7.2 3 7.2 8v14.5h-5.5V18c0-2.5-1.2-4-3.5-4s-3.8 1.5-3.8 4.5V32h-5.5V18c0-2.5-1.2-4-3.5-4s-3.8 1.5-3.8 4.5V32H56z"/>
  <path d="M101 32.5c-6 0-10.5-4.5-10.5-11s4.5-11 10.5-11c5.5 0 9.5 3.5 10 8.5h-5.5c-.5-2.2-2-3.5-4.5-3.5-3 0-5 2.5-5 6s2 6 5 6c2.5 0 4-1.3 4.5-3.5h5.5c-.5 5-4.5 8.5-10 8.5z"/>
  <path d="M117 14.5v-4h4v-5h5.5v5h5v4h-5V24c0 2 1 2.8 2.5 2.8 1 0 2-.3 2.5-.5V31c-1 .5-2.5 1-4.5 1-4 0-6-2.5-6-6.5V14.5h-4z"/>
  <path d="M150 32V10h5v2c1.5-1.8 3.5-2.5 5.5-2.5 1.5 0 2.8.3 3.5.8v5c-1-.5-2-.8-3.5-.8-2.5 0-5 1.5-5 5V32h-5.5z"/>
</svg>