<svg xmlns="http://www.w3.org/2000/svg" viewBox="0 0 200 40" fill="white">
  <rect x="4" y="8" width="11" height="11" opacity="0.9"/>
  <rect x="17" y="8" width="11" height="11" opacity="0.9"/>
  <rect x="4" y="21" width="11" height="11" opacity="0.9"/>
  <rect x="17" y="21" width="11" height="11" opacity="0.9"/>
  <path d="M38 14h3v17h-3V22l-4.5 7h-.3L28.5 22v9h-3V14h3.2l4.2 7 4-7z"/>
  <path d="M45 14h3v17h-3V14zm1.5-2c-1.2 0-2-1-2-2s.8-2 2-2 2 1 2 2-.8 2-2 2z"/>
  <path d="M58 17.5l-2 2c-1-1-2-1.5-3.2-1.5-1.5 0-2.5.8-2.5 2s1 1.8 2.8 2.2l1 .2c3 .8 4.5 2.2 4.5 4.8 0 3-2.5 5-5.8 5-2.5 0-4.8-1.2-6-3l2-2c1 1.3 2.5 2.2 4 2.2 1.8 0 3-.8 3-2.2 0-1.2-1-1.8-3-2.3l-1-.3c-2.5-.6-4.2-2-4.2-4.5 0-3 2.5-4.8 5.5-4.8 2 0 4 .8 5 2.2z"/>
  <path d="M67 23.5c0-5.5 4-9.5 9-9.5s9 4 9 9.5-4 9.5-9 9.5-9-4-9-9.5zm15 0c0-3.8-2.5-6.5-6-6.5s-6 2.7-6 6.5 2.5 6.5 6 6.5 6-2.7 6-6.5z"/>
  <path d="M87 31V14h3v2c1-1.5 2.5-2.5 4.5-2.5v3.2c-.3-.1-.6-.1-1-.1-1.5 0-3 1-3.5 2.5V31h-3z"/>
  <path d="M103 23.5c0-5.5 4-9.5 9-9.5s9 4 9 9.5-4 9.5-9 9.5-9-4-9-9.5zm15 0c0-3.8-2.5-6.5-6-6.5s-6 2.7-6 6.5 2.5 6.5 6 6.5 6-2.7 6-6.5z"/>
  <path d="M124 31V14h3v2c1-1.5 2.5-2.5 4.5-2.5v3.2c-.3-.1-.6-.1-1-.1-1.5 0-3 1-3.5 2.5V31h-3z"/>
  <path d="M135 14h3v17h-3V14zm1.5-2c-1.2 0-2-1-2-2s.8-2 2-2 2 1 2 2-.8 2-2 2z"/>
  <path d="M143 14h3v2c1.2-1.5 3-2.5 5.2-2.5 3.5 0 5.8 2.5 5.8 6.5V31h-3V20.5c0-2.5-1.5-4-3.8-4-2.5 0-4 1.5-4.2 3.5v11h-3V14z"/>
  <path d="M161 14h3v17h-3V14zm1.5-2c-1.2 0-2-1-2-2s.8-2 2-2 2 1 2 2-.8 2-2 2z"/>
  <path d="M168 14h3v2c1.2-1.5 3-2.5 5-2.5 2 0 3.5 1 4.5 2.5 1.2-1.5 3-2.5 5.5-2.5 3.5 0 5.8 2.5 5.8 6.5V31h-3V20.5c0-2.5-1.5-4-3.5-4-2.2 0-3.8 1.5-4 3.5v11h-3V20.5c0-2.5-1.5-4-3.5-4-2.2 0-3.8 1.5-4 3.5v11h-3V14z"/>
</svg>