<svg xmlns="http://www.w3.org/2000/svg" viewBox="0 0 180 40" fill="white">
  <path d="M15 13.5v-2.3c.3 0 .6 0 1 0 8.5-.5 13.5 7 13.5 7s-5.5 8.5-11.5 8.5c-1 0-2-.2-3-.6v-10c3.5-.3 4.5 2 6.5 5l5-3.5s-4-5-9.5-4.5c-.7 0-1.3.2-2 .4zM15 6.5v3c.3-.1.6-.2 1-.2C25.5 8.5 32 18 32 18s-8 10.5-15.2 10.5c-.6 0-1.2 0-1.8-.2v3c.5 0 1 .1 1.5.1C26 31 35.5 20 35.5 20S27 8 16.5 6.5c-.5 0-1 0-1.5 0zM15 28.5v3c-1-.2-1.5-.2-1.5-.2C5 30 1 20 1 20s5.5-8 12-9.2v3c-4.5 1.3-8 6.2-8 6.2s3 6 10 8.5z"/>
  <path d="M50 31V9h4l10 15V9h4v22h-3.8L54 16v15h-4z"/>
  <path d="M78 31l-8-22h5l5.5 15.5L86 9h5l-8 22h-5z"/>
  <path d="M94 31V9h4.5v22H94z"/>
  <path d="M103 9h8c7 0 12 4.5 12 11s-5 11-12 11h-8V9zm4.5 4v14h3.5c4.5 0 7.5-3 7.5-7s-3-7-7.5-7h-3.5z"/>
  <path d="M127 31V9h4.5v22H127z"/>
  <path d="M144 9h5l9 22h-5l-2-5h-9l-2 5h-5l9-22zm2.5 5l-3 8h6l-3-8z"/>
</svg>