<svg xmlns="http://www.w3.org/2000/svg" viewBox="0 0 200 40" fill="white">
  <path d="M20 4C11.2 4 4 11.2 4 20s7.2 16 16 16 16-7.2 16-16S28.8 4 20 4zm0 2.5c2.8 0 5.3.9 7.4 2.3L20 15.5l-7.4-6.7c2.1-1.4 4.6-2.3 7.4-2.3zm-9.5 4.8L18 18l-7.5 6.7c-1.8-2.1-2.8-4.8-2.8-7.7h.1l-.1-.3c0-.1 0-.2.1-.3 0-2 .6-3.8 1.5-5.4l1.2 1.3zm2.1 17.2c-2.1-1.4-3.7-3.4-4.7-5.8L15.5 20l4.5 4v9.5c-2.8 0-5.4-.9-7.4-2.3v.3zM22 33.5V24l4.5-4 7.6 2.7c-1 2.4-2.6 4.4-4.7 5.8l-.1-.3c-2 1.4-4.5 2.3-7.3 2.3zm10.5-7.8L25 19l7.5-6.7c1.8 2.1 2.8 4.8 2.8 7.7 0 2.2-.6 4.2-1.6 5.9l-1.2.8z"/>
  <path d="M56 20c0-7 5-12 12-12s12 5 12 12-5 12-12 12-12-5-12-12zm19.5 0c0-4.5-3-8-7.5-8s-7.5 3.5-7.5 8 3 8 7.5 8 7.5-3.5 7.5-8z"/>
  <path d="M84 31V9h4.5v8c1.5-2 3.8-3 6.5-3 5 0 8.5 4 8.5 10s-3.5 10-8.5 10c-2.7 0-5-1-6.5-3v2.5H84zm10 .5c3.5 0 6-2.8 6-7s-2.5-7-6-7-6 2.8-6 7 2.5 7 6 7z"/>
  <path d="M108 22c0-6 4.5-10 10-10 5 0 9.5 4 9.5 10.5v1h-15c.5 3.5 3 5.5 6 5.5 2.5 0 4.2-1 5.5-3l3.5 2c-2 3-5 5-9 5-6 0-10.5-4-10.5-11zm15-2c-.5-3-2.5-5-5.5-5s-5 2-5.5 5h11z"/>
  <path d="M132 31V12h4.5v2.5c1.5-2 4-3.5 7-3.5 5 0 8 3 8 8.5V31h-4.5V20c0-3.5-2-5.5-5-5.5s-5.5 2.5-5.5 6V31H132z"/>
  <path d="M162 8h5l10 23h-5l-2.3-5.5h-10.5L157 31h-5l10-23zm2.5 5l-3.5 9h7l-3.5-9z"/>
  <path d="M181 31V8h4.5v23H181z"/>
</svg>