<svg xmlns="http://www.w3.org/2000/svg" viewBox="0 0 200 40" fill="white">
  <path d="M20 2v36M20 2l-5 5M20 2l5 5M20 38l-5-5M20 38l5-5M4.5 11l31 18M4.5 11l1.5 6.5M4.5 11l6.5 1.5M35.5 29l-1.5-6.5M35.5 29l-6.5-1.5M35.5 11l-31 18M35.5 11l-6.5 1.5M35.5 11l-1.5 6.5M4.5 29l6.5-1.5M4.5 29l1.5-6.5" stroke="white" stroke-width="2" fill="none"/>
  <path d="M50 31V14h3.5v2c1.5-1.5 3.5-2.5 6-2.5 3 0 5 1.2 6 3 1.5-2 4-3 6.5-3 4 0 6.5 2.5 6.5 7V31h-3.5V21c0-3-1.5-4.5-4-4.5s-4 1.5-4.2 4V31h-3.5V21c0-3-1.5-4.5-4-4.5s-4 1.5-4.2 4V31H50z"/>
  <path d="M92 31.5c-6 0-10-4.5-10-10s4-10 9.5-10c5 0 9 4 9 9.5v1.5H86c.5 3.5 3 5.5 6 5.5 2.5 0 4-1 5.5-2.5l2 2c-2 2.5-4.8 4-7.5 4zm5-12.5c-.5-3-2.5-5-5.5-5s-5 2-5.5 5h11z"/>
  <path d="M103 31V6h3.5v25H103z"/>
  <path d="M112 14h3.5v2c1-1.5 2.5-2.5 4.5-2.5v3.5c-.5-.1-1-.2-1.5-.2-1.5 0-3 1-3 3V31H112V14z"/>
</svg>